/* XPM */
static char *result[] = {
/* columns rows colors chars-per-pixel */
"35 35 187 2 ",
"   c #00000F",
".  c #030015",
"X  c #120017",
"o  c #001B15",
"O  c #1D151D",
"+  c #22170F",
"@  c #230018",
"#  c #241911",
"$  c #291E14",
"%  c #27191E",
"&  c #2B1C1C",
"*  c #01231A",
"=  c #002C1E",
"-  c #1E2A1E",
";  c #2D2116",
":  c #2E2319",
">  c #3C2716",
",  c #33251A",
"<  c #3A261B",
"1  c #36281D",
"2  c #392B1E",
"3  c #3F361D",
"4  c #000025",
"5  c #000029",
"6  c #120E25",
"7  c #251527",
"8  c #2C1E22",
"9  c #002C23",
"0  c #1B2E22",
"q  c #003125",
"w  c #04352A",
"e  c #1B3328",
"r  c #003830",
"t  c #352D23",
"y  c #3C2E22",
"u  c #382A27",
"i  c #233023",
"p  c #2D3325",
"a  c #353627",
"s  c #3E3023",
"d  c #3E342A",
"f  c #440000",
"g  c #45251A",
"h  c #46281D",
"j  c #512B1F",
"k  c #5C291E",
"l  c #43321C",
"z  c #6F261C",
"x  c #432E22",
"c  c #492B22",
"v  c #502F22",
"b  c #433325",
"n  c #4C3224",
"m  c #4C3B22",
"M  c #453629",
"N  c #493729",
"B  c #46382D",
"V  c #4B3A2B",
"C  c #523325",
"Z  c #573528",
"A  c #453931",
"S  c #4A3C32",
"D  c #513F30",
"F  c #622C21",
"G  c #692C20",
"H  c #733323",
"J  c #783926",
"K  c #29422C",
"L  c #5E4B13",
"P  c #494629",
"I  c #534125",
"U  c #55432F",
"Y  c #5B452C",
"T  c #494135",
"R  c #544034",
"E  c #614C23",
"W  c #605635",
"Q  c #911E14",
"!  c #BE0000",
"~  c #AE140D",
"^  c #BA110A",
"/  c #A9081A",
"(  c #AF1D17",
")  c #B21910",
"_  c #8A2317",
"`  c #AD2818",
"'  c #842D21",
"]  c #863A27",
"[  c #953622",
"{  c #9C3A24",
"}  c #A43F29",
"|  c #B53B21",
" . c #C40000",
".. c #CC0000",
"X. c #CD0F07",
"o. c #D50000",
"O. c #DC0000",
"+. c #C61D0B",
"@. c #C9190C",
"#. c #CC1414",
"$. c #E90006",
"%. c #E70011",
"&. c #F20812",
"*. c #C82911",
"=. c #D82816",
"-. c #D9301B",
";. c #EC2D1E",
":. c #FE281B",
">. c #E1341E",
",. c #FD3D1C",
"<. c #FC0035",
"1. c #ED3621",
"2. c #FE3324",
"3. c #FF362C",
"4. c #FD3C30",
"5. c #9B7E1F",
"6. c #94512B",
"7. c #985D30",
"8. c #A84A2A",
"9. c #A6713D",
"0. c #FC7D13",
"q. c #C4432B",
"w. c #CA4728",
"e. c #D2472B",
"r. c #D8472C",
"t. c #D9482C",
"y. c #D25D2C",
"u. c #CF5E31",
"i. c #ED4427",
"p. c #EA4C2E",
"a. c #F64628",
"s. c #FC462C",
"d. c #F44D2E",
"f. c #FE4D2E",
"g. c #FF512F",
"h. c #F05131",
"j. c #FE5431",
"k. c #FF5C34",
"l. c #FE662C",
"z. c #CF7B41",
"x. c #FE7542",
"c. c #FC7746",
"v. c #A1821A",
"b. c #BB971E",
"n. c #C19A1A",
"m. c #D5AF0F",
"M. c #DDB800",
"N. c #D7AC18",
"B. c #FFA11E",
"V. c #FCB518",
"C. c #CC8624",
"Z. c #FE8029",
"A. c #E39D21",
"S. c #FE9722",
"D. c #F6C803",
"F. c #FECB0A",
"G. c #FFD300",
"H. c #FFD800",
"J. c #92864C",
"K. c #979253",
"L. c #B28A4B",
"P. c #BE9955",
"I. c #B5AA5F",
"U. c #D8894A",
"Y. c #D89955",
"T. c #E38E4F",
"R. c #F9894D",
"E. c #F89755",
"W. c #C5A55A",
"Q. c #FEA35B",
"!. c #FFA85E",
"~. c #D3B664",
"^. c #FFAE61",
"/. c #E8B865",
"(. c #D7CA71",
"). c #FDC36C",
"_. c #E3CD72",
"`. c #FDC870",
"'. c #EED677",
"]. c #F6D677",
"[. c #F2E07C",
"{. c #F3E680",
"}. c #FEED84",
"|. c #FEF186",
" X c #FFF689",
".X c #FFF98B",
"XX c #FFFF93",
/* pixels */
"y N S M B B b y s y 3 b y 1 N N M x 1 , y s M y D V y s b : ; b y b b ",
"y N b b b b b y y 2 8 8 m 2 M N M 2 , , b s M 2 D V b b b ; $ b y b b ",
"2 N s s y b b t l 8 E P 4 l V M M y , 2 x b s y D M x b M , $ 2 y b M ",
"1 N b y b b b y b & I N.v.. 8 I M y 1 2 3 b M y D M b b M , $ y y b b ",
"2 M b b y M b x d U 5 b.G.m.E 5 m b , 2 b b M y S b b b b , $ l b y b ",
"2 b b b y b M 2 ; > . L D.F.D.5.5 l 2 , 2 M b y V N x b b , t B b b b ",
", M 2 b b b b 2 b B c K A.s.B.G.n.6 % b b s V s D N b y b , & y t t 2 ",
"; 2 b b b M 2 s b B n r y.s.4.V.H.N.; 7 V y S s V M s y b , ; y y b 2 ",
"+ 2 b M b b b y b 2 C q q.g.4.S.H.H.M.P 6 l y , V N s b b , b T B S M ",
"+ 2 s M s b b 2 y s C q q.g.s.l.F.V.B.N.P u D t 2 b b s y , 2 M 2 s b ",
"+ 2 3 b b M M y b 2 n q w.g.g.3.0.Z.<.l.C.e M , 1 N b 2 b , 2 N s M b ",
"# y 2 b b b M y s b n q e.g.f.x.c.2.,.3.j.8.9 1 x V M 2 N , 2 M x b b ",
"$ b s b B M M b y b b b p.g.&.Q.|.).R.a.2.h.8.k 2 S y y S ; s M b b y ",
"# s u , d t 2 y s j i H g.j.o.U..X X|.`.c.:.k.{ o 2 ; , 1 ; b b b b b ",
"$ M b , 1 1 1 : 1 C q } g.j.o.z.}.}.|..X{.E.2.| = B M b A y N N b b x ",
"; V M y b b b , t n q e.g.g.o.U. X}.}.}. X X!.#.- S N M B 2 V N b M s ",
"; N y y b s s , x t j d.g.j...U. X}.}.}.}.|.|.T.f p N b l 2 V N s M y ",
"; M s y b s 2 , n 9 { f.g.j. .Y..X}.}.|.|.}. X].E O N M M , N N x b y ",
"; M b b b s s , x w t.g.j.i.! /..X}.|.}.}.}.}.|.J.. B M M 1 V N l M s ",
"$ b b b b b y g = ] f.f.g.=.! ]. X}.}. X X}.}..XI.. x N M 2 V N M M s ",
"; b b b b b x < 9 e.f.j.i.! u.}.}.|.}._.]..X'.}.(.& , N M 2 N V x s b ",
"; M b b b b n o H f.g.a.+.! /. X}. X[.6.P.XXW.W.{.W @ M b 2 N V u y s ",
"; M b b 2 M x , 0 r.g.d. .U. X}.}.|.}.7.7..XL.9..XK.  m N 2 N N t x y ",
"; M b b y b s g 9 J d.j.>.w.]..X}.}.|.~.P. X~.(. XY.X b b 2 B V y b b ",
"; N s b b b b : v r | g.j.%.*.'..X X|. X X|..X.X^.( 0 b M 2 M A , B d ",
", V b b b b b ; g * [ g.f.k.;.=./.[.|.|.|.}.].E./ 9 s b b 2 , 1 $ ; , ",
"y N b b b M b : C r q.g.f.f.k.s.&.x.Q.!.Q.R.1.o.Z a x s y 2 y S b B y ",
"y M M b b b b , n r e.g.>.-.s.g.j.;.%.%.$.O. .+.( s s b M y b B N B M ",
"2 V b b b M s 2 t s t.-.!  .@.` H Y I m J ` +.o...z p l M 2 < N b l b ",
"l V b b b M l g 9 ' X.....) F q e i * o 0 C z Q ^ z p b b 2 : N b b M ",
"y N b N M b b : l ~  .) _ y a V Z Z h < n p 0 0 Z j s b n 2 : M M b b ",
"s N b M y s b 1 b G F N i t R B S V , $ x l b y d t M b M 2 : b s b M ",
"y V T N B A M 2 3 t p d y < t , u y $ : x x M b n B B A b , ; b s b b ",
"2 y u 1 t s , : b b x N b , s t t , , : b y N 2 ; $ $ $ $ $ ; b b b s ",
"1 1 , , 2 2 , , b y 2 x M y S S A M l $ y s b y N S u d B , ; M s b b "
};
