/* XPM */
static char *result[] = {
/* columns rows colors chars-per-pixel */
"35 35 212 2 ",
"   c #00000E",
".  c #1C0009",
"X  c #000013",
"o  c #00001B",
"O  c #1B0618",
"+  c #001D19",
"@  c #2E0000",
"#  c #3C0000",
"$  c #22170F",
"%  c #27001E",
"&  c #231911",
"*  c #2A1E14",
"=  c #2D181E",
"-  c #311C18",
";  c #16271D",
":  c #222117",
">  c #2D2116",
",  c #2E2219",
"<  c #312315",
"1  c #33251B",
"2  c #3A251E",
"3  c #36281D",
"4  c #3A2B1E",
"5  c #3F3419",
"6  c #000123",
"7  c #0E0021",
"8  c #000E26",
"9  c #000429",
"0  c #150028",
"q  c #001524",
"w  c #001E26",
"e  c #081328",
"r  c #1B1F22",
"t  c #271723",
"y  c #311924",
"u  c #012A24",
"i  c #003425",
"p  c #033928",
"a  c #183021",
"s  c #242522",
"d  c #2B2923",
"f  c #352B23",
"g  c #3C2E22",
"h  c #362E28",
"j  c #233324",
"k  c #283628",
"l  c #2E382A",
"z  c #323123",
"x  c #3E3023",
"c  c #3D3229",
"v  c #373B30",
"b  c #3E3A33",
"n  c #670000",
"m  c #452D1B",
"M  c #49281C",
"N  c #5A3A1D",
"B  c #722C1A",
"V  c #402D22",
"C  c #502A20",
"Z  c #433225",
"A  c #4B3524",
"S  c #473925",
"D  c #4A3A26",
"F  c #45362A",
"G  c #493729",
"H  c #463A2C",
"J  c #4B3A2B",
"K  c #523A26",
"L  c #463A31",
"P  c #4A3D32",
"I  c #513F30",
"U  c #4F441F",
"Y  c #7A4718",
"T  c #564726",
"R  c #5C5224",
"E  c #4F4136",
"W  c #574934",
"Q  c #654625",
"!  c #665828",
"~  c #6C5232",
"^  c #746A2A",
"/  c #AB0000",
"(  c #BB0000",
")  c #A30E18",
"_  c #842D1F",
"`  c #8A3414",
"'  c #AD2810",
"]  c #923F2A",
"[  c #AC3C30",
"{  c #D50000",
"}  c #DB0100",
"|  c #DF0C03",
" . c #DA1F1D",
".. c #EA0400",
"X. c #FC0506",
"o. c #F41B11",
"O. c #CF3500",
"+. c #DB2A11",
"@. c #DC381B",
"#. c #E6210E",
"$. c #F62614",
"%. c #F6371C",
"&. c #DF0222",
"*. c #F42724",
"=. c #E83624",
"-. c #FC3E23",
";. c #F83827",
":. c #905218",
">. c #AA5616",
",. c #B05C13",
"<. c #84601A",
"1. c #9A631C",
"2. c #B76B17",
"3. c #B66D14",
"4. c #88472B",
"5. c #815021",
"6. c #837937",
"7. c #A77126",
"8. c #D95F00",
"9. c #DD5012",
"0. c #E74717",
"q. c #F0511B",
"w. c #C76904",
"e. c #C97D0A",
"r. c #DE700A",
"t. c #C37715",
"y. c #D67B15",
"u. c #FD6500",
"i. c #EF7600",
"p. c #FF7216",
"a. c #D0502C",
"s. c #F8462D",
"d. c #FD4C2C",
"f. c #E1562A",
"g. c #FE552D",
"h. c #FE5D2A",
"j. c #FE4531",
"k. c #FF4B34",
"l. c #FF4A3A",
"z. c #EF5433",
"x. c #FF5333",
"c. c #FF5939",
"v. c #FE642B",
"b. c #FE7323",
"n. c #FA7820",
"m. c #8F6F4A",
"M. c #A5754C",
"N. c #D06541",
"B. c #F66D44",
"V. c #FE7A4E",
"C. c #FC7F55",
"Z. c #9E922F",
"A. c #8E8330",
"S. c #9B8B31",
"D. c #959534",
"F. c #A28430",
"G. c #A79B3A",
"H. c #B6A838",
"J. c #D9860B",
"K. c #D98512",
"L. c #EE8E07",
"P. c #F38800",
"I. c #FF9502",
"U. c #FE9B01",
"Y. c #F49208",
"T. c #FF930D",
"R. c #E28D12",
"E. c #FD8714",
"W. c #FF851C",
"Q. c #FC911A",
"!. c #EEAF00",
"~. c #FFA300",
"^. c #FFA614",
"/. c #F49024",
"(. c #FE9033",
"). c #CBBC3B",
"_. c #FDB825",
"`. c #FDCD00",
"'. c #FFD100",
"]. c #FDCC15",
"[. c #B89361",
"{. c #BEA06A",
"}. c #D88F5E",
"|. c #FA8347",
" X c #FD8658",
".X c #CDB578",
"XX c #FCBF66",
"oX c #E3AE73",
"OX c #FFAD71",
"+X c #E4B477",
"@X c #FCBA7C",
"#X c #CDC644",
"$X c #D6C742",
"%X c #EAD945",
"&X c #FFDB45",
"*X c #FEDA55",
"=X c #F5E448",
"-X c #FCEB4B",
";X c #FFF74D",
":X c #FFFE50",
">X c #F9D770",
",X c #DDD08A",
"<X c #FCCA85",
"1X c #EED28A",
"2X c #FCDE94",
"3X c #F2E89A",
"4X c #FCED9D",
"5X c #FCF091",
"6X c #FEF19F",
"7X c #FEF4A2",
"8X c #FFF9A6",
"9X c #FFFDA9",
/* pixels */
"g G L T 0 ~ =X$X= = Z 4 Z 3 G G Z x 4 1 4 x Z g E D c V Z 1 > Z V Z Z ",
"g G Z D x 7 #X:XH.o g S g 3 Z G H 4 1 3 Z Z Z x I D Z Z Z > > x g Z Z ",
"4 F x g U 7 ^ -X-XR 7 t g 3 Z D Z 4 3 1 Z Z Z g I G V Z F , * 4 g Z Z ",
"4 H Z g Z J 6 A.-XS.6 G.D 1 Z Z D x 3 4 x Z Z g I Z Z Z Z 1 * g g Z F ",
"4 Z Z Z g G H o G.6.! =X^ O G Z F Z 1 f V Z G g J Z c Z Z 1 < V c 4 Z ",
"g Z Z Z g Z D 1 5 X ^ ;XZ.o J Z Z g 1 1 Z Z Z 4 I S Z Z Z 1 f H Z H Z ",
"1 Z g Z Z Z A s Q :.T -XH.o G Z Z Z 4 g Z Z G g P G Z V g < , h 4 f 4 ",
"* g Z Z Z V Z f d K.` #X).o G Z S Z < c F h P c I Z V g Z 1 1 g f Z g ",
"$ g Z Z Z Z Z Z q K.P.F.D.% D Z Z Z , 1 4 1 f 1 D G Z g Z 1 Z E H L Z ",
"$ 4 x F Z Z Z A q t.U.Y.Y 8 F A Z Z 1 g P H J 4 2 Z Z g V 1 g Z g Z Z ",
"& 4 x Z Z D Z A 6 3.E.U.U.7.k e G K 1 f F F H - 4 G F 4 Z 1 g Z V F Z ",
"& g 4 Z Z Z Z K 9 <.n.b.T.I.e.! w f m M Z g Z 1 g J F 4 H 1 x Z g Z Z ",
"* Z g Z F G F Z V k y.g.d.|.p.i.7.E + ; f Z S f m P g h L > Z Z Z Z Z ",
"& c h 3 c h 4 4 A 8 1.W.-. X@Xg.u.f.4.4.] ; K 2 , 1 , 1 1 > Z Z Z Z Z ",
"* Z Z 1 3 3 3 , 4 A 8 e.b.$.<X2X X%.X.%.z.~ i M 1 L Z Z L f D F Z Z Z ",
"> J Z x Z Z Z 1 f A y R W.o.B.9X4X<XOXV.$.#.W i M L F G J g J G Z Z g ",
"1 G Z 4 Z x x 1 4 g C u y.x.} @X9X7X7X4X<X X| # p K Z Z Z 3 J D Z Z Z ",
", Z x g Z x 4 3 g c m u t.v.{ a.4X6X7X7X8X4X<XN.@ l J Z Z 3 J G Z Z g ",
"> Z Z Z Z x 4 1 x Z m 6 2.v.s.( oX8X4X6X7X7X7X6XoX# O D Z 4 G G Z Z V ",
"* Z Z c Z Z x 1 g Z m 9 2.b.k.} a.4X8X6X7X7X7X3X6X,XW 4 F 4 J J Z Z x ",
"> Z F Z c Z V 1 x Z m o e.W.j.s.( +X9X6X7X6X9X[.{.7Xm.. H f G D g g Z ",
"> Z Z Z Z Z x > g Z m o K.U.h.x...N.4X7X4X6X9XM.M.1Xn 1 S 4 J J g g Z ",
"> F Z Z 4 Z g , g A d m L.U.E.x.s.{ ,X8X4X7X8X.X.X3X.XZ Z 4 G G f V g ",
", F Z Z g Z Z 1 g A s N Y.I.v.d.x...}.7X7X7X7X9X8X8X2XB j V G P g H V ",
"> G Z Z Z Z Z 1 g L m 9 K.T.j.d.x.;.9.1X6X4X7X5XXX XC._ j 4 F P 1 H c ",
"1 J Z Z Z Z Z , * f M o 5.I.h.s.g.x.+.!.&X>X*X].u.X.%.G c 4 1 1 * , 1 ",
"g G Z Z Z Z Z 1 g L H T + e.W.j.g.g.&.J.'.`.`.Q.l.c.[ u Z 4 c L Z H c ",
"g Z Z Z Z Z Z 1 Z L Z K d t r.h.d.@.=.0./._.(.x.;.q.7.w S g V D F J Z ",
"g D Z Z Z Z Z 4 V V A w u 2.=.s. .( +.;.;.-.*. .9.P.^.S.0 S 1 Z Z Z Z ",
"g J Z S Z F Z 1 g S h Q R.~.W.0.O.O.' ' ' ) ' / 8.I._.%XT = 3 G S Z Z ",
"g J S Z Z Z x 3 g A s 1.y.y.3.,.>.:.B & a j f C 5.w._.:XG.o 5 Z Z Z Z ",
"g G Z Z Z g Z 3 g Z V A s : b H H v ; : Z x x z l r 5.%X%Xo 4 Z Z Z Z ",
"g I P S G L Z 4 x Z V c f , f , f f - < V V Z Z A c e W H.U O Z Z Z Z ",
"f g f 1 f h 1 1 V Z g D Z 3 Z h 4 2 1 > V Z H 4 < - < o   > * Z x Z Z ",
"4 1 1 2 4 4 1 1 Z 4 g Z Z g J P H H g > V Z Z g H P g F H 1 > Z x Z Z "
};
