/* XPM */
static char *result[] = {
/* columns rows colors chars-per-pixel */
"35 35 127 2 ",
"   c #4F2B07",
".  c #4F2B08",
"X  c #4F2C08",
"o  c #502C08",
"O  c #512D08",
"+  c #512D09",
"@  c #522E09",
"#  c #532E09",
"$  c #512E0A",
"%  c #522E0A",
"&  c #532F0B",
"*  c #542F0B",
"=  c #563009",
"-  c #55300A",
";  c #55300B",
":  c #54300C",
">  c #55300C",
",  c #55310C",
"<  c #55310D",
"1  c #56320D",
"2  c #57320D",
"3  c #57320E",
"4  c #57330F",
"5  c #5A320A",
"6  c #5B320A",
"7  c #5C330A",
"8  c #58320C",
"9  c #59320C",
"0  c #59340F",
"q  c #5B350F",
"w  c #5D340C",
"e  c #5F360D",
"r  c #5D360E",
"t  c #5D360F",
"y  c #5E360E",
"u  c #5F360E",
"i  c #5F370E",
"p  c #5E360F",
"a  c #583410",
"s  c #5B3510",
"d  c #5B3610",
"f  c #5D3712",
"g  c #5D3812",
"h  c #5F3912",
"j  c #5E3813",
"k  c #5E3A15",
"l  c #653A0E",
"z  c #6B3D0F",
"x  c #623A12",
"c  c #633B13",
"v  c #643A11",
"b  c #643B11",
"n  c #603A14",
"m  c #623B14",
"M  c #623C16",
"N  c #623D17",
"B  c #643E17",
"V  c #683F16",
"C  c #693F16",
"Z  c #603C18",
"A  c #6B4014",
"S  c #694016",
"D  c #6D4115",
"F  c #66401B",
"G  c #6A4219",
"H  c #6B431A",
"J  c #6A421B",
"K  c #6B431B",
"L  c #6D451D",
"P  c #6E451D",
"I  c #724315",
"U  c #734415",
"Y  c #724517",
"T  c #734517",
"R  c #714518",
"E  c #70471D",
"W  c #71471D",
"Q  c #72471C",
"!  c #76491B",
"~  c #74481C",
"^  c #75481C",
"/  c #76491D",
"(  c #774B1F",
")  c #78491A",
"_  c #78491B",
"`  c #794A1A",
"'  c #7B4D1E",
"]  c #7C4C1D",
"[  c #7C4D1D",
"{  c #7F4E1D",
"}  c #7D4E1F",
"|  c #7E4E1E",
" . c #7F4E1E",
".. c #7F4F1E",
"X. c #7F4F1F",
"o. c #784C21",
"O. c #7A4D20",
"+. c #784D22",
"@. c #7B4E22",
"#. c #7B4F22",
"$. c #7C4F23",
"%. c #804F1F",
"&. c #815020",
"*. c #815120",
"=. c #825121",
"-. c #825221",
";. c #805122",
":. c #815222",
">. c #815223",
",. c #835322",
"<. c #835323",
"1. c #845323",
"2. c #845423",
"3. c #825425",
"4. c #845424",
"5. c #855424",
"6. c #855524",
"7. c #845425",
"8. c #855525",
"9. c #865625",
"0. c #865626",
"q. c #865627",
"w. c #875727",
"e. c #885727",
"r. c #885828",
"t. c #895929",
"y. c None",
/* pixels */
"y.y.y.y.y.y.y.y.y.X . . . .   o o o . . . . . . o o y.y.y.y.y.y.y.y.y.",
"y.y.y.y.y.y.y.y.= 5 w y i p d 1 + > s t u u t s , o   y.y.y.y.y.y.y.y.",
"y.y.y.y.y.+ o o 6 z U ) ` ! E M * g L ^ ) ) ^ L j + o + O O y.y.y.y.y.",
"y.y.y.y.% a 4 $ w U { ,.2.:.O.V ; x ( ;.1.1.;.( c % 0 h e 7 # y.y.y.y.",
"y.y.y.y.% k Z : y ) ,.w.r.0.X.A - v ] 5.r.r.5.] b * B W I l # y.y.y.y.",
"y.y.y.y.% N F < y _ 1.r.t.0.%.A - b [ 6.t.t.6.[ b ; S ' | D # y.y.y.y.",
"y.y.y.* 0 G H 2 y ) 1.r.t.0.X.A - v ] 6.r.r.6.] v - A ..2.~ q & y.y.y.",
"y.y.+ g J / R 8 y ) 1.r.t.0.X.A - v ] 6.r.r.6.] v - A  .<.@.K f + y.y.",
"y.y.o m o.} T 9 r ) 1.r.t.0.X.A - v ] 6.r.r.6.] v - A ..4.3.+.m o y.y.",
"y.y.@ C ;.&.Y 8 r ) 1.r.t.0.X.A - v ] 6.r.r.6.] v - A X.9.w.>.V @ y.y.",
"y.3 n Q <.*.Y 8 r ) 1.r.t.0.X.A - v ] 6.r.r.6.] v - A X.0.r.4.Q n 3 y.",
"  s P $.<.&.Y 8 r ) 1.r.t.0.X.A - v ] 6.r.r.6.] v - A X.0.e.7.#.P s   ",
". t ^ >.8.=.Y 8 r ) 1.r.t.0.X.A - v ] 6.r.r.6.] v - A X.0.r.q.>.^ t . ",
". u ) 2.w.-.Y 8 r ) 1.r.t.0.X.A - v ] 6.r.r.6.] v - A X.0.t.r.1.) u . ",
". u ) 2.w.-.Y 8 r ) 1.r.t.0.X.A - v ] 6.r.r.6.] v - A X.0.t.r.1.) u . ",
". y ) 2.w.-.Y 8 r ) 1.r.t.0.X.A - v ] 6.r.r.6.] v - A X.0.t.r.1.) y . ",
". y ) 2.w.-.Y 8 r ) 1.r.t.0.X.A - v ] 6.r.r.6.] v - A X.0.t.r.1.) y . ",
". y ) 2.w.-.Y 8 r ) 1.r.t.0.X.A - v ] 6.r.r.6.] v - A X.0.t.r.1.) y . ",
". y ) 2.w.-.Y 8 r ) 1.r.t.0.X.A - v ] 6.r.r.6.] v - A X.0.t.r.1.) y . ",
". y ) 2.w.-.Y 8 r ) 1.r.t.0.X.A - v ] 6.r.r.6.] v - A X.0.t.r.1.) y . ",
". y ) 2.w.-.Y 8 r ) 1.r.t.0.X.A - v ] 6.r.r.6.] v - A X.0.t.r.1.) y . ",
". y ) 2.w.-.Y 8 r ) 1.r.t.0.X.A - v ] 6.r.r.6.] v - A X.0.t.r.1.) y . ",
". y ) 2.w.-.Y 8 r ) 1.r.t.0.X.A - v ] 6.r.r.6.] v - A X.0.t.r.1.) y . ",
". y ) 2.w.-.Y 8 r ) 1.r.t.0.X.A - v ] 6.r.r.6.] v - A X.0.t.r.1.) y . ",
". y ) 2.w.-.Y 8 r ) 1.r.t.0.X.A - v ] 6.r.r.6.] v - A X.0.t.r.1.) y . ",
". y ) 2.w.-.Y 8 r ) 1.r.t.0.X.A - v ] 6.r.r.6.] v - A X.0.t.r.1.) y . ",
". y ) 2.w.-.Y 8 r ) 1.r.t.0.X.A - v ] 6.r.r.6.] v - A X.0.t.r.1.) y . ",
". y ) 2.w.-.Y 8 r ) 1.r.t.0.X.A - v ] 6.r.r.6.] v - A X.0.t.r.1.) y . ",
". y ) 2.w.-.Y 8 r ) 1.r.t.0.X.A - v ] 6.r.r.6.] v - A X.0.t.r.1.) y . ",
". y ) 2.w.-.Y 8 r ) 1.r.t.0.X.A - v ] 6.r.r.6.] v - A X.0.t.r.1.) y . ",
". y ) 2.w.-.Y 8 r ) 1.r.t.0.X.A - v ] 6.r.r.6.] v - A X.0.t.r.1.) y . ",
". y ) 2.w.-.Y 8 r ) 1.r.t.0.X.A - v ] 6.r.r.6.] v - A X.0.t.r.1.) y . ",
". y ) 2.w.-.Y 8 r ) 1.r.t.0.X.A - v ] 6.r.r.6.] v - A X.0.t.r.1.) y . ",
". y ) 2.w.-.Y 8 r ) 1.r.t.0.X.A - v ] 6.r.r.6.] v - A X.0.t.r.1.) y . ",
". y ) 2.w.-.Y 8 r ) 1.r.t.0.X.A - v ] 6.r.r.6.] v - A X.0.t.r.1.) y . "
};
