/* XPM */
static char *result[] = {
/* columns rows colors chars-per-pixel */
"42 42 53 1 ",
"  c #114600",
". c #154B00",
"X c #194F00",
"o c #1D5300",
"O c #205601",
"+ c #255C01",
"@ c #285F03",
"# c #22550A",
"$ c #265B0A",
"% c #285E09",
"& c #266000",
"* c #2C6303",
"= c #2E6801",
"- c #2D640A",
"; c #306605",
": c #326A05",
"> c #396E02",
", c #30670B",
"< c #346B0C",
"1 c #386E0C",
"2 c #367007",
"3 c #397205",
"4 c #377009",
"5 c #3A720D",
"6 c #3F780D",
"7 c #2E6311",
"8 c #306612",
"9 c #346B12",
"0 c #386E13",
"q c #356A18",
"w c #396F19",
"e c #3C7313",
"r c #3F7811",
"t c #3D731A",
"y c #40770F",
"u c #417A0E",
"i c #407613",
"p c #437B15",
"a c #40771A",
"s c #447B1B",
"d c #487F1C",
"f c #467D21",
"g c #487F22",
"h c #478016",
"j c #4A8214",
"k c #4A821D",
"l c #548D1D",
"z c #4C8322",
"x c #518923",
"c c #53892B",
"v c #58902D",
"b c #5F9734",
"n c #629B2A",
/* pixels */
"-w7.o -st&<et,r&*<7o,*4<=cs,5&9+*&<g-9-$-7",
"--q$oo+<5:*w1<pk++$-we5&=e&**+-$e50f-%8%%-",
"O,9-++@1<o&<-<1*9----9t<1<oe*oo0,,1-- -q%$",
"<:t*+o.5so<9*&++e8<+++*<*5=5+o-f9*+oOX-797",
"<&,<-o=rs*+ee,&e--,oo-o*5::*+o<,t*++ %-@%$",
"45p&<e5<44+es9s0+99&oto9v==*$$9o+%-oo--q++",
"@ze+5ee&*<-+&or&o<t=*t&-s*4-+9t+$-qo09<-,,",
"O1@&*&<*ss5+<:**o9z-999+o=01o-+<o+9w%ea**@",
"+9*o+*+-tzz:k0&-&<<,w7s-o-&95,9<O#oqe-*+@y",
"q--@0e++9,<<15=<:<-8-<e*$&o9zef+XoX89*0&@i",
"8$+o9t-+++***,5,:59&0,<-9++1:seqO O8-<-e;y",
"#$O+-ft$+9*&=5<9<st-e,o*7-+++<e$@,8**t-t1%",
"7-++*<0-o-o+=,+-&p1<-to*--*-X=-&0i*-,%8i@-",
"t,1*+--++9e*5,,-&:*,+w-o-+z<+.=t010+OOaO-a",
",-r5<5*o+0z+,<t-5:<:-+-X+-5t9o<,d;1*+o%O#8",
"-+*52&--+t0+&s8*<p549-o$e*,e<<e511>1%;i9XO",
"+o++h5:r*,-+999&3j3jd1Oiy;;;i;yd>-idg,a,.O",
"$-o<x:4s*+oo--9=33>ppg,OOy>;yiyy+1siii1% O",
"oo7tf<-f%-o++1s=d,=*>ga+;du@dp;;yp;;ip;oO#",
"$780<++977ooo*x<@,o*+iy@yndyy1ypp;@O;p;o-O",
"--,-*,++9$qt9-eeO$%,9;9@pj:1;*<@*1,@@;9@7X",
"f,s=<5o+f+7$70,,q8ii*ii,3>5@8@OO0a0<*1@<--",
"r4:=p36h:9t0,-,<,,i;yiaikkw$99X*sa@10:=&;p",
"442:ju44&p,te&:*@yy1i>8a@*a87o,9;;10>;p:yd",
"e255s,+<*,<krr3=1;=u>=**+577---*o<:4rh52:6",
"rp:&p<+&*o=b6535<*@;5k*&54+9-t-*:+*<zc:*54",
"9-&+,<e-+-1t,ektw-++xj2xl3+<,ze+<&+-t9-9s1",
"+o+-+,e-+*<<,*09#8+,2u:5u3=e+<p4<=k1-+.+9&",
"oo-9*t<2:+*toX####-d:u6&3=&t*+ph:224--@&-+",
"oOts,k55&>:<O%$XX#a;:6e&5p&t-&2:h:6<&e+-9&",
"+ott-1<:&p3:5e,+o<1165o*&ktw+o&=3>ee--9-0*",
"+o&*0,&:<z5<&se;@si65r,+o08-9&=254e-%-q++-",
":=<><+>5pe-9+er5:i1<>p=o*&*e5=:kh5*=98+oo<",
"=<5x==hhs<$o+,<*;y;;>p<<r1+,pu&r5*+*9-+o.e",
"k,sh:*6p5,o. +*+kd+@<p5pee*<p5;*he&,-w8X+z",
"s=e1--=l5*$ +o<=ii;@45e*,9-9e:e+4p5s&seX=r",
"-,++-9:<,-o$90=5;*;ck+++*9$&t=9+=e<5<0et,=",
"t-++$-+&&o779w0+&:ec5&+*<+7+<+@++5,5ze&r::",
"t--wo$+s&+9w*r<+>>;e5:&s,ot-+&%O*5,*ee&=++",
"e+&-8+ee&+-+t5o2ky5<k:&t+*w-&0%X-+s555r252",
"+9@+7$+===e*1p<uju=1>5<*9e<+et-o-,<*4rp5k4",
"-t*ooo*rpes*er2uu3*;5455=<e<e-$-0**=56:>4*"
};
