/* XPM */
static char *result[] = {
/* columns rows colors chars-per-pixel */
"35 35 202 2 ",
"   c black",
".  c #270000",
"X  c #330100",
"o  c #3B0200",
"O  c #3E0B00",
"+  c #26190E",
"@  c #331300",
"#  c #3C1500",
"$  c #3B1D00",
"%  c #251A11",
"&  c #2A1E13",
"*  c #3B2202",
"=  c #3F300F",
"-  c #2D2117",
";  c #2F2219",
":  c #362514",
">  c #3B2B15",
",  c #32251A",
"<  c #37281C",
"1  c #3A2B1E",
"2  c #2F1F20",
"3  c #2F2828",
"4  c #352B24",
"5  c #3C2E22",
"6  c #372E29",
"7  c #3F3023",
"8  c #3D322B",
"9  c #382F31",
"0  c #393637",
"q  c #420300",
"w  c #410D00",
"e  c #421400",
"r  c #431C00",
"t  c #442400",
"y  c #452C00",
"u  c #4A2F00",
"i  c #4A3100",
"p  c #44321E",
"a  c #402F22",
"s  c #433325",
"d  c #483627",
"f  c #44362B",
"g  c #483729",
"h  c #46382D",
"j  c #4A3A2C",
"k  c #503E2F",
"l  c #423731",
"z  c #453A32",
"x  c #4A3D34",
"c  c #503F30",
"v  c #4D423A",
"b  c #1C3156",
"n  c #2E3545",
"m  c #2E3855",
"M  c #3E4549",
"N  c #3A4B59",
"B  c #00437D",
"V  c #1D4F76",
"C  c #28466B",
"Z  c #3C4F60",
"A  c #335976",
"S  c #3F6078",
"D  c #454B50",
"F  c #415665",
"G  c #445E72",
"H  c #426075",
"J  c #416278",
"K  c #BD4B00",
"L  c #C96514",
"P  c #89627B",
"I  c #976777",
"U  c #B27171",
"Y  c #C67158",
"T  c #DC7C58",
"R  c #D47D63",
"E  c #F4864A",
"W  c #E58258",
"Q  c #F58953",
"!  c #FD905E",
"~  c #12518B",
"^  c #1A5989",
"/  c #004B9C",
"(  c #00549B",
")  c #3C6684",
"_  c #2F719A",
"`  c #3D7599",
"'  c #004DA3",
"]  c #0355A3",
"[  c #025AA5",
"{  c #015CAA",
"}  c #0858A9",
"|  c #125EAA",
" . c #005DB4",
".. c #0163AE",
"X. c #0368AA",
"o. c #1A62AE",
"O. c #007AAF",
"+. c #1B73AC",
"@. c #0063B2",
"#. c #006BB4",
"$. c #0A68B3",
"%. c #006CBA",
"&. c #1569B3",
"*. c #0072B3",
"=. c #0173BC",
"-. c #0D73B9",
";. c #007ABD",
":. c #1577BA",
">. c #286CAF",
",. c #3A7AA2",
"<. c #257BB9",
"1. c #466E87",
"2. c #48659C",
"3. c #467694",
"4. c #447A9B",
"5. c #457EA1",
"6. c #597AAA",
"7. c #017BC2",
"8. c #037AC6",
"9. c #167CC1",
"0. c #8A6E8A",
"q. c #A47781",
"w. c #2C81B8",
"e. c #3682B7",
"r. c #4284AC",
"t. c #4986AB",
"y. c #518BAE",
"u. c #588CB9",
"i. c #5794BD",
"p. c #6190BD",
"a. c #0180C6",
"s. c #0082CA",
"d. c #0B85CB",
"f. c #028ACD",
"g. c #0D8ECF",
"h. c #1487CD",
"j. c #1B8CCC",
"k. c #0084D2",
"l. c #008FD0",
"z. c #1C8FD4",
"x. c #0293D4",
"c. c #0D94D4",
"v. c #0698D8",
"b. c #189BD8",
"n. c #2787C9",
"m. c #3589C7",
"M. c #338BCB",
"N. c #2A90C9",
"B. c #3A94CA",
"V. c #3B94CB",
"C. c #2399D7",
"Z. c #2D9ED9",
"A. c #369AD4",
"S. c #2AA2DD",
"D. c #36A1DB",
"F. c #3BA3DC",
"G. c #36A7E1",
"H. c #448DC1",
"J. c #4698CA",
"K. c #549BCF",
"L. c #609FCB",
"P. c #5BA0CB",
"I. c #45A7DE",
"U. c #4AA9DE",
"Y. c #54A7DA",
"T. c #73AAD0",
"R. c #79ACD2",
"E. c #47ABE3",
"W. c #55AEE1",
"Q. c #58AFE2",
"!. c #5CB2E4",
"~. c #58B4E8",
"^. c #64B4E3",
"/. c #6CB7E4",
"(. c #6CB8E5",
"). c #74BAE6",
"_. c #7CBEE7",
"`. c #7AC2ED",
"'. c #8C8F92",
"]. c #869EBA",
"[. c #9BABBC",
"{. c #AEAFB0",
"}. c #AAB2BF",
"|. c #94B6D4",
" X c #B1BBC8",
".X c #9DC3DE",
"XX c #BEC4CB",
"oX c #B7C6D6",
"OX c #86C4EB",
"+X c #93C8EB",
"@X c #9ACDED",
"#X c #88C8F0",
"$X c #ABD5EE",
"%X c #B7DBF1",
"&X c #C3C8CE",
"*X c #DCDCDB",
"=X c #E5E4E2",
"-X c #F3EFE9",
";X c #F7F4EE",
":X c #F6F5F3",
">X c #FCF9F6",
",X c #FEFEFD",
/* pixels */
"5 g x s z h s 5 s < 5 5 s 1 g g s 7 6 4 5 5 g 5 c j 5 5 s , & g 7 s s ",
"5 g s s s s s 1 5 1 5 1 5 < d g s 7 @ $ 7 s s 5 c g s s g & & 5 5 d s ",
"1 g 5 7 7 s s 1 5 1 s s a < s d h * V ^ * g s 5 c g s s f , & 5 5 7 s ",
"1 g s 5 5 s s 5 s , s d s < s f s 1 N.=.2 s f 4 c s s s s , & 5 7 7 s ",
"1 s s 7 7 g s 5 f z 5 v s 1 g f y N A.=.m y f 5 c s 5 s s , , 5 s 1 s ",
"1 d s s 5 s d 5 - - - ; & 4 g z r 1.A.7.C y f 1 j h s s s , 4 f f 8 d ",
"< s 7 s s 5 s 5 s f 5 h 5 5 g l w r.Z.8.~ y x 5 c g s a s & ; 6 5 4 1 ",
"% 7 s s s s 5 5 d 8 f z 5 5 h s f Y.Z.8.[ > v 5 k g a 5 s , , 5 5 s 5 ",
"% 1 7 s s s 7 7 7 1 7 s 1 8 v o 3.~.C.a. .n > , g g 7 7 s ; g x h x s ",
"% 1 7 f s s d 1 7 7 7 j 8 > q H (.Y.C.s.%.V i 9 4 s s 5 s ; 5 d 7 5 7 ",
"% 5 7 s s f f 7 7 f h y X 0 y.).(.U.b.s.7.{ m @ : x f 5 s , 4 s 7 d s ",
"% 1 < g 7 s f 7 0 * O Z t.T.OX`.^.U.b.f.7.@.[ ~ 0 u t 1 h , s s s s s ",
"% f 4 s g g j 8 o N i.^.#X@XOX).Q.F.v.f.8.=.$.@.X.^ C 7 i 3 7 s s s s ",
"% 7 6 < 8 6 7 X ` !.`.$X$X+X(.^.W.D.x.f.8.8.#...{ ..X.+.A . g s s s s ",
"% s s ; 1 4 X r.~._.$X%X+X/.^.!.Y.S.x.f.h.<.<.$.@.{ ] [ :._ y g 7 s 7 ",
"; j g 7 h X r.~.).@X$XOX^.^.!.E.S.C.x.j.k. . .=.$...{ ] / 9.` t h s 7 ",
"- g 7 9 # ) ~.^._.+X`./.^.Q.J.T.i.f.C.7.p.&X}.[ #.$.{ [ ] ( n.F t h 7 ",
"; g 7 7 > J.~.^.).)./.^.!.L.*X,X,X[.8.p.;X>X,X&X' >.{ [ [ ] -.` # h 7 ",
"- s l r A W.W.^./.^.!.^.S.oX,X'.*X;X{ oX=X   X:X(  .| [ [ *.*.e.p s s ",
"& a z O 4.G.U.Y.Q.W.W.!.v.oX:X  {.>X#.|.;X'.=X=X/ o.{ } [ e.m.w.z s 7 ",
"; s z O ,.b.D.I.U.U.U.U.S.P.-X,X,X Xa.;.XX:X*X6.@.o.{ ] ..R.K.<.= 7 8 ",
"; s z e ` c.c.D.D.D.D.S.Z.x.u. X].=.h.d.%.X. .] b B o.' e..XJ.` # 8 7 ",
"- d 0 r A N.a.c.c.c.c.v.O.A *.8.k.z.h.d.s.8.2.Y L n { [ R.|.j.G # 8 s ",
"- g s s > B.a.;.x.l.g.x.V K T q.6.;.=.*.2.U T ! Y ' { B.|.K.e.u 7 f 7 ",
", g 7 l r J A.7.=.8.d.h.7.I W E T T R R T Q T P ]  .:.L.P.J.D p 4 f 8 ",
", g s s f # S J.j.%.%.=.d.a.>.0.R R R R R 0.^ { } [ ;.A.J.N X 4 + - ; ",
"5 g s s s z e n r.V.n.8.%.&.%.%. .} ' ' ' ' { o.:.n.J.r.8 @ 8 v s z s ",
"5 g s s s s l $ O D 4.m.V.V.M.M.M.n.M.H.<.m.B.V.H.t.F O p 8 1 g f g s ",
"5 j s s s f s 4 z t e y D J 1.4.5.5.5.4.3.1.Z M y o $ 8 g 1 < g s s s ",
"5 j s f s s s ; 5 s l f * o e q w w X X o w # * j 9 f s d 1 ; g s s d ",
"5 g d s s s s , a s a s 7 8 x z x x 9 3 l l f 5 g 4 7 s d 1 - d s s s ",
"5 j s g 7 p s , a a a f 5 5 c j x j , & a 4 s 5 g 5 s s d 1 ; s s s f ",
"5 j v d g j g < 7 7 7 f 7 < 7 , 6 7 & ; s 7 d 7 d 8 z x s , ; s 7 7 s ",
"1 5 6 : 4 6 < ; s 7 7 g 7 , 5 4 < < ; ; 7 7 g 1 - & % & - % - 7 s s s ",
"< < : , 1 < ; < s 1 5 s s 1 v j j g 1 ; 5 7 s 5 d v 7 8 h , - s 7 s s "
};
