/* XPM */
static char *result[] = {
/* columns rows colors chars-per-pixel */
"35 35 186 2 ",
"   c #000019",
".  c #1B001D",
"X  c #22170F",
"o  c #241911",
"O  c #2A1E14",
"+  c #3D1F16",
"@  c #002812",
"#  c #00231A",
"$  c #002B1A",
"%  c #00351F",
"&  c #2D2116",
"*  c #2E2319",
"=  c #2D2B1B",
"-  c #352417",
";  c #33251B",
":  c #3F261A",
">  c #36291D",
",  c #3A2B1E",
"<  c #000024",
"1  c #070825",
"2  c #00002C",
"3  c #160727",
"4  c #001D2E",
"5  c #1D1127",
"6  c #2B1D26",
"7  c #2E1528",
"8  c #002426",
"9  c #002C22",
"0  c #1C2D23",
"q  c #003225",
"w  c #0A3225",
"e  c #0D372E",
"r  c #113025",
"t  c #1D3124",
"y  c #003731",
"u  c #252E23",
"i  c #2A2E22",
"p  c #362B23",
"a  c #3C2E22",
"s  c #372929",
"d  c #243225",
"f  c #2C3124",
"g  c #263A2A",
"h  c #343225",
"j  c #3E3023",
"k  c #33352C",
"l  c #3E332B",
"z  c #32392A",
"x  c #343D31",
"c  c #680005",
"v  c #780007",
"b  c #41251A",
"n  c #41291B",
"m  c #492D1D",
"M  c #43331E",
"N  c #4A381A",
"B  c #602A1E",
"V  c #78291D",
"C  c #6F1E26",
"Z  c #432E22",
"A  c #4C2F22",
"S  c #482A29",
"D  c #433325",
"F  c #4A3324",
"G  c #453825",
"H  c #4D3B24",
"J  c #453629",
"K  c #483729",
"L  c #46382D",
"P  c #4B3A2B",
"I  c #503224",
"U  c #56382A",
"Y  c #453931",
"T  c #4A3D32",
"R  c #503E30",
"E  c #772E22",
"W  c #633324",
"Q  c #6E3827",
"!  c #693728",
"~  c #783625",
"^  c #7A621F",
"/  c #424A2C",
"(  c #53412A",
")  c #4A4136",
"_  c #514330",
"`  c #655122",
"'  c #7B6323",
"]  c #9E1A13",
"[  c #AC080A",
"{  c #BC0000",
"}  c #B10E0B",
"|  c #AE120C",
" . c #91390A",
".. c #872118",
"X. c #8D291D",
"o. c #9C2116",
"O. c #AF2406",
"+. c #840824",
"@. c #A30027",
"#. c #A11A29",
"$. c #853A27",
"%. c #A42723",
"&. c #B02323",
"*. c #A63B28",
"=. c #B63622",
"-. c #C20001",
";. c #CA0000",
":. c #C50C01",
">. c #D10000",
",. c #C51A01",
"<. c #D60217",
"1. c #D8001F",
"2. c #D41F10",
"3. c #CF200E",
"4. c #C73501",
"5. c #DC2A16",
"6. c #DF361C",
"7. c #E43A1E",
"8. c #FC1232",
"9. c #CD3E22",
"0. c #E82B24",
"q. c #FF2D2F",
"w. c #E93527",
"e. c #EE3C26",
"r. c #F63D2A",
"t. c #FE2930",
"y. c #FF3B31",
"u. c #B57806",
"i. c #91442B",
"p. c #A3412A",
"a. c #AA412A",
"s. c #B34627",
"d. c #A55E23",
"f. c #997826",
"g. c #B76222",
"h. c #CA4E00",
"j. c #D77201",
"k. c #C2432A",
"l. c #DB472B",
"z. c #E3492A",
"x. c #F14128",
"c. c #FD452F",
"v. c #F24C2D",
"b. c #FD4D2E",
"n. c #F35722",
"m. c #FF512F",
"M. c #FE5D2D",
"N. c #F15330",
"B. c #FF5330",
"V. c #FF5B31",
"C. c #FF622C",
"Z. c #FE6D2A",
"A. c #AB8A1E",
"S. c #BB991B",
"D. c #A48521",
"F. c #C48A05",
"G. c #C89103",
"H. c #D39D03",
"J. c #C59A1A",
"K. c #E99C04",
"L. c #F08E19",
"P. c #D5B003",
"I. c #C6A319",
"U. c #DAB11C",
"Y. c #E1AB02",
"T. c #EEB402",
"R. c #EDB902",
"E. c #E3BA0A",
"W. c #F4BC00",
"Q. c #F8BB06",
"!. c #FEBE0E",
"~. c #FFA61D",
"^. c #FEAD1A",
"/. c #FCBB11",
"(. c #FFB418",
"). c #CF9A20",
"_. c #FB8B25",
"`. c #FE9125",
"'. c #FD9C21",
"]. c #F5C401",
"[. c #FBC503",
"{. c #FECB01",
"}. c #FFC50B",
"|. c #FBC90D",
" X c #FFD200",
".X c #FFD900",
/* pixels */
"a K T J L L D a Z a a a a a K K D a , ; a j D a _ K a j D - & D a J D ",
"a K D D D D j a a , p n H ; J K J a - ; D j D j R P D D D & & j a D D ",
", K j j a D D a a p K 5 1 N K K D a ; ; D D D a R K D D J * O a a Z D ",
"> K D a D D j a Z , i D.^   F H J Z > a j D D a R D D D D * O a a D J ",
", D D D a J D Z Y _ < f.].S.7 3 ( a ; , Z D D a P D a D D - * Z h , F ",
", D D D a D J , O * -   E..XE.' < F , ; a J J a R K D D D ; p L J L D ",
"> D a D D j D a D l H 2 S.^.~.{.A.< ; D j D P j P K D j D ; * s > p a ",
"O j D D D D a a D L H 4 f.V.8.^..XI.  6 P p T j R J j , D ; * a a j a ",
"X , D D D D j a D , F t $.m.c.Z.{. XP.= . M > > K K D j D - D ) L T D ",
"X , j J j D J a a j F f ~ m.b.b./.{.}.U./ s _ ; , D D j D & a D a D Z ",
"o , j D D J D j a a F d ~ m.m.y.`./.b.`.).g S , > K D , D ; a D a J D ",
"o a , D D D J a D D F w $.b.m.m.c.m.c.t.Z.g.8 * D K J , J - D D a D D ",
"O D a J L J D D a j I q a.m.b.M.^.`.C.c.y.b.i.p m T p a T & j D D D D ",
"O j h ; l p , a a j I q k.B.e.7.}..X!.'.M.y.N.*.O = ; ; > & D D D D D ",
"O j j ; > , ; * , Z F d z.B.e.{ Q.{.{. X/._.y.z.a k F D Y a P J D D j ",
"& P J j D D D ; a F u Q b.B.x.:.Q. X[.{. X{.`.e.W x P D L a P K D D j ",
"* K a a D j j ; a I # p.m.m.w.,.Q.{.{.{.{.{. X_.+.w K D M , P K D D Z ",
"* J j a D a a > a F # l.m.B.0.4.[. X{.{.{.{. X}.d.1 K D D > P K D D a ",
"& D D D D a a * F r V m.b.B.<.h.{.{.{.{.{.{.[..XJ.5 l D D , P K D D D ",
"O D D D D D j ; I 9 k.m.b.b.{ j. X{.{.{.{.{.[. XP.l p F D , K P D J a ",
"& D J D D D a b 0 W v.m.B.6.{ K..X[.{.{.{.{.{. X].` 6 F D a J K a a D ",
"& D D D D D a b 9 k.b.m.x.-.,.].{.{. XH.u..X[.F.[.f.< D G a K P a a a ",
"* J D D , D a b 9 k.m.m.3.{ K. X{.{. XG.c ].W.v ].I.< F D > K K a a j ",
"* K D D a D a : u U v.B.x.:.Q. X{.{. XY.v R.R. .].|.S p K a P P a J D ",
"& K j D D D D * A y *.c.B.0.4.}. X{.{.{.T.[.{.].{.`.C u D , J Y ; L l ",
"; K D D D D D & + , # z.m.B.0.4.T. X{. X.X X X|._.#.u D D a > - O * * ",
"a K D D D J D * A x ! v.m.m.M.r.w.L.(.!./.(.'.n.@.% j Z a a a T D L Z ",
"a J D D D D D ; F e $.B.m.x.v.V.b.q.c.V.M.r.1.;.O.I h D J a a P J L J ",
"a P D D D J D ; I $ p.b.5.{ 5.0.9.s.*.%.&.-.:.,.>.V d Z D a ; D D D D ",
"j P D G D D j ; A q =.2.-.;.[ E h q $ @ % W o.} ;.| h D F a - K J D D ",
", P D D D D j , t V ;.;.-.o.I g J I n : A f f m E ..D Z D > * D D D D ",
"a K F D D D M , f V ] X.B d T H R R > O D Z a h z i J D J a - D j J D ",
"a R ) F J P D p a j f z f - D ; p p O - j j D D F Y L Y J ; * D D D D ",
", a p ; p l ; ; D j j P n > a p > > - ; D a J a - O O O O o O D Z D j ",
"> > ; > > , ; - D , , D D a T T T J , & a a D a J T p J T ; O D j D D "
};
