/* XPM */
static char *result[] = {
/* columns rows colors chars-per-pixel */
"35 35 226 2 ",
"   c #5A3804",
".  c #5B3904",
"X  c #5C3904",
"o  c #5D3A04",
"O  c #5E3A04",
"+  c #5E3B04",
"@  c #623D04",
"#  c #643F04",
"$  c #664004",
"%  c #694204",
"&  c #6C4305",
"*  c #6C4405",
"=  c #6D4405",
"-  c #6F4505",
";  c #714605",
":  c #714705",
">  c #724705",
",  c #754905",
"<  c #764905",
"1  c #764A05",
"2  c #764A06",
"3  c #774A06",
"4  c #784A06",
"5  c #7B4D06",
"6  c #7D4E06",
"7  c #7F5006",
"8  c #825106",
"9  c #835106",
"0  c #855207",
"q  c #865307",
"w  c #875307",
"e  c #865406",
"r  c #885606",
"t  c #8A5606",
"y  c #8D5806",
"u  c #8E5906",
"i  c #8F5906",
"p  c #935D07",
"a  c #955E07",
"s  c #986007",
"d  c #A26508",
"f  c #A76808",
"g  c #AB6B08",
"h  c #AA6D08",
"j  c #AB6E08",
"k  c #AC6C08",
"l  c #AD6D08",
"z  c #AE6D08",
"x  c #AF6D08",
"c  c #AF6D09",
"v  c #AF6E08",
"b  c #B16F08",
"n  c #B16E09",
"m  c #B27008",
"M  c #B37008",
"N  c #B27009",
"B  c #B37009",
"V  c #B47108",
"C  c #B57108",
"Z  c #B47109",
"A  c #B57109",
"S  c #B77209",
"D  c #B67309",
"F  c #B77309",
"G  c #B4700A",
"H  c #B7720A",
"J  c #B77509",
"K  c #B77609",
"L  c #B87309",
"P  c #B97409",
"I  c #B87509",
"U  c #BA7409",
"Y  c #BB7509",
"T  c #B87609",
"R  c #BA7609",
"E  c #BA7709",
"W  c #BB7709",
"Q  c #BA740A",
"!  c #BB740A",
"~  c #BC7509",
"^  c #BC7609",
"/  c #BF7709",
"(  c #BD760A",
")  c #BE7909",
"_  c #C17809",
"`  c #C17909",
"'  c #C07A09",
"]  c #C37A0A",
"[  c #C37A0B",
"{  c #C67B09",
"}  c #C17C09",
"|  c #C27D09",
" . c #C77C09",
".. c #C47F09",
"X. c #C57F09",
"o. c #C67C0B",
"O. c #C87C09",
"+. c #CB7E0A",
"@. c #CA7E0B",
"#. c #CB7F0B",
"$. c #CC7F0A",
"%. c #C98209",
"&. c #CD800A",
"*. c #CC800B",
"=. c #CC840A",
"-. c #CD840A",
";. c #D1840B",
":. c #D3840A",
">. c #D2850A",
",. c #D2870A",
"<. c #D4840A",
"1. c #D6850A",
"2. c #D4850C",
"3. c #D2880A",
"4. c #D48A0A",
"5. c #D58B0B",
"6. c #D78C0B",
"7. c #DA880A",
"8. c #DB880A",
"9. c #D98D0A",
"0. c #D88E0A",
"q. c #D98E0B",
"w. c #DA8F0A",
"e. c #DB8F0A",
"r. c #DF8D0B",
"t. c #D98A0C",
"y. c #DD910B",
"u. c #DF910B",
"i. c #DF940B",
"p. c #E28C0B",
"a. c #E38D0B",
"s. c #E48D0B",
"d. c #E48E0B",
"f. c #E1930B",
"g. c #E1940B",
"h. c #E2950B",
"j. c #E3950B",
"k. c #E2970B",
"l. c #E4950B",
"z. c #E5960B",
"x. c #E1940C",
"c. c #E2950C",
"v. c #E3960C",
"b. c #E4960C",
"n. c #E6970C",
"m. c #EC920B",
"M. c #ED930B",
"N. c #EC960B",
"B. c #E8950C",
"V. c #E8970C",
"C. c #E6980C",
"Z. c #E7980C",
"A. c #EA9A0B",
"S. c #EA9B0B",
"D. c #EB9B0B",
"F. c #EC9B0B",
"G. c #EC9C0B",
"H. c #E8980C",
"J. c #E9980C",
"K. c #EF9B0C",
"L. c #E99C0C",
"P. c #EB9C0C",
"I. c #EA9D0C",
"U. c #EB9E0C",
"Y. c #ED9C0C",
"T. c #EC9F0C",
"R. c #ED9F0C",
"E. c #EF9E0C",
"W. c #EF9F0C",
"Q. c #F1950B",
"!. c #F4970C",
"~. c #F1990B",
"^. c #F09F0B",
"/. c #F19F0B",
"(. c #F49A0C",
"). c #EDA00C",
"_. c #F0A20C",
"`. c #F3A20C",
"'. c #F4A10C",
"]. c #F4A20C",
"[. c #F5A20C",
"{. c #F4A30C",
"}. c #F5A30C",
"|. c #F6A30C",
" X c #F6A40C",
".X c #F7A40C",
"XX c #F7A50C",
"oX c #F6A60C",
"OX c #F7A60C",
"+X c #F8A50C",
"@X c #FAA40C",
"#X c #F9A60C",
"$X c #FAA60C",
"%X c #FAA70C",
"&X c #FBA70C",
"*X c #F5A80C",
"=X c #F7A90C",
"-X c #F6AA0C",
";X c #F7AB0C",
":X c #F7AD0C",
">X c #F8A90C",
",X c #FBA90C",
"<X c #FCA80C",
"1X c #FCA90C",
"2X c #FCAA0C",
"3X c #FCAB0C",
"4X c #FEAA0C",
"5X c #F8AD0C",
"6X c #F9AD0C",
"7X c #F8AE0C",
"8X c #F8AF0C",
"9X c #FDAC0C",
"0X c #FFAD0C",
"qX c #FDAE0C",
"wX c #FFAE0C",
"eX c #FEAF0C",
"rX c #FFAF0C",
"tX c #F8B00C",
"yX c #FBB10C",
"uX c #FBB20C",
"iX c #FCB00C",
"pX c #FFB00C",
"aX c #FEB10C",
"sX c #FFB10C",
"dX c #FFB20C",
"fX c None",
/* pixels */
"fXfXfXfXfXfXfXfXfXfXfXfXfXfXfXfXfXfXfXfXfXfXfXfXfXfXfXfXfXfXfXfXfXfXfX",
"fXfXfXfXfXfXfXfXfXfXfXfXfXfXfXfXfXfXfXfXfXfXfXfXfXfXfXfXfXfXfXfXfXfXfX",
"fXfXfXfXfXfXfXfXfXfXfXfXfXfXfXfXfXfXfXfXfXfXfXfXfXfXfXfXfXfXfXfXfXfXfX",
"fXfXfXfXfXfXfXfXfXfXfXfXfXfXfXfXfXfXfXfXfXfXfXfXfXfXfXfXfXfXfXfXfXfXfX",
"fXfXfXfXfXfXfXfXfXfXfXfXfXfXfXfXfXfXfXfXfXfXfXfXfXfXfXfXfXfXfXfXfXfXfX",
"fXfXfXfXfXfXfXfXfXfXfXfXfXfXfXfXfXfXfXfXfXfXfXfXfXfXfXfXfXfXfXfXfXfXfX",
"fXfXfXfXfXfXfXfXfXfXfXfXfXfXfXfXfXfXfXfXfXfXfXfXfXfXfXfXfXfXfXfXfXfXfX",
"fXfXfXfXfXfXfXfXfXfXfXfX+ + + o o o O + + fXfXfXfXfXfXfXfXfXfXfXfXfXfX",
"fXfXfXfXfXfXfXfXfXfXfXfX> 5 9 w q w 0 6 , fXfXfXfXfXfXfXfXfXfXfXfXfXfX",
"fXfXfXfXfXfXfXfXfXfXfX% u v [ #.@.#.o.A s : + fXfXfXfXfXfXfXfXfXfXfXfX",
"fXfXfXfXfXfXfXfXfXfX; t T y.I.W.K.E.U.h...p 1 @ fXfXfXfXfXfXfXfXfXfXfX",
"fXfXfXfXfXfXfXfXfX% t J j.,X6X-X{.*X5X3XG.| a - @ fXfXfXfXfXfXfXfXfXfX",
"fXfXfXfXfXfXfX  - y K j.#X<XP.q.=.5.C.#X<XA...a 1 + fXfXfXfXfXfXfXfXfX",
"fXfXfXfXfXfXfX= r I f.%X].l.;.( z L *.u.^.&XA.| p : fXfXfXfXfXfXfXfXfX",
"fXfXfXfXfXX = i T z.$X X4.R Z v k z B D %.^.&XG...s , + fXfXfXfXfXfXfX",
"fXfXfXfXfX. > f 6.>XrX].X.x ` / v P O.{ >./.0X9Xg.A 6 + fXfXfXfXfXfXfX",
"fXfXfXfXfX  2 H v.7XsX].X.U s.8.C &.Q.!.(.@XqXyXI.o.0 O fXfXfXfXfXfXfX",
"fXfXfXfXfX  4 ! Z.tXdX].X.b +. .b / :.1.r.'.eXuX).#.w o fXfXfXfXfXfXfX",
"fXfXfXfXfX  3 Q n.8XdX}.-.M C m l b C z ) F.rXuXT.@.q o fXfXfXfXfXfXfX",
"fXfXfXfXfX  4 ! Z.tXaX$XN.a.p.&.m  .7.~ E S.pXuX).#.w o fXfXfXfXfXfXfX",
"fXfXfXfXfX  < G x.5XpX$X~.m.M.<.V $.d._ W S.rXiXL.[ 9 + fXfXfXfXfXfXfX",
"fXfXfXfXfXX ; d 3.OXwX|.,.Y ^ S z C Y x W D.0X2Xy.v 5 + fXfXfXfXfXfXfX",
"fXfXfXfXfXfX* e j e.[.+Xw.} P n g c F ' 4.`.+Xj.T u > + fXfXfXfXfXfXfX",
"fXfXfXfXfXfXfX$ 7 l 9.+X#XY.t.] N ( 2.J..X&Xj.J t % fXfXfXfXfXfXfXfXfX",
"fXfXfXfXfXfXfXfX& 8 h 9.|.4X_.k.0.i.R.1X$Xg.K t ; fXfXfXfXfXfXfXfXfXfX",
"fXfXfXfXfXfXfXfXfX# 8 l e.oX5X;XXX=X:X>Xz.I y % fXfXfXfXfXfXfXfXfXfXfX",
"fXfXfXfXfXfXfXfXfXfX& 7 j 3.c.H.B.V.b.6.T r - fXfXfXfXfXfXfXfXfXfXfXfX",
"fXfXfXfXfXfXfXfXfXfXfX$ e d G ! Q ! H f i =   fXfXfXfXfXfXfXfXfXfXfXfX",
"fXfXfXfXfXfXfXfXfXfXfXfX* ; < 4 3 4 2 > = fXfXfXfXfXfXfXfXfXfXfXfXfXfX",
"fXfXfXfXfXfXfXfXfXfXfXfXfXX           . X fXfXfXfXfXfXfXfXfXfXfXfXfXfX",
"fXfXfXfXfXfXfXfXfXfXfXfXfXfXfXfXfXfXfXfXfXfXfXfXfXfXfXfXfXfXfXfXfXfXfX",
"fXfXfXfXfXfXfXfXfXfXfXfXfXfXfXfXfXfXfXfXfXfXfXfXfXfXfXfXfXfXfXfXfXfXfX",
"fXfXfXfXfXfXfXfXfXfXfXfXfXfXfXfXfXfXfXfXfXfXfXfXfXfXfXfXfXfXfXfXfXfXfX",
"fXfXfXfXfXfXfXfXfXfXfXfXfXfXfXfXfXfXfXfXfXfXfXfXfXfXfXfXfXfXfXfXfXfXfX",
"fXfXfXfXfXfXfXfXfXfXfXfXfXfXfXfXfXfXfXfXfXfXfXfXfXfXfXfXfXfXfXfXfXfXfX"
};
