/* XPM */
static char *result[] = {
/* columns rows colors chars-per-pixel */
"35 35 224 2 ",
"   c #020102",
".  c #040A05",
"X  c #020209",
"o  c #0A0906",
"O  c #120400",
"+  c #190B03",
"@  c #1C1406",
"#  c #1C1814",
"$  c #091016",
"%  c #281908",
"&  c #3D1807",
"*  c #261714",
"=  c #003300",
"-  c #18261B",
";  c #0A2E15",
":  c #262B09",
">  c #3A250E",
",  c #23211A",
"<  c #3A2617",
"1  c #363819",
"2  c #35350C",
"3  c #121C32",
"4  c #24172B",
"5  c #1C3827",
"6  c #12382B",
"7  c #2A2824",
"8  c #30322D",
"9  c #243839",
"0  c #3A3937",
"q  c #2F2D27",
"w  c #4E0400",
"e  c #411107",
"r  c #442A19",
"t  c #473317",
"y  c #503109",
"u  c #4C2021",
"i  c #4B3828",
"p  c #563928",
"a  c #483A35",
"s  c #5A3936",
"d  c #462D31",
"f  c #6D2A2D",
"g  c #304818",
"h  c #005920",
"j  c #075734",
"k  c #28462D",
"l  c #3F4320",
"z  c #384A35",
"x  c #25543C",
"c  c #1E663E",
"v  c #484727",
"b  c #544327",
"n  c #45562D",
"m  c #554639",
"M  c #54573D",
"N  c #5C5426",
"B  c #695228",
"V  c #7B552D",
"C  c #695939",
"Z  c #735A38",
"A  c #6B4A33",
"S  c #716339",
"D  c #1C344E",
"F  c #2C3D4F",
"G  c #343743",
"H  c #382940",
"J  c #593040",
"K  c #532D56",
"L  c #6E3943",
"P  c #13544F",
"I  c #264F41",
"U  c #365645",
"Y  c #334F4B",
"T  c #3F604D",
"R  c #044467",
"E  c #3B5061",
"W  c #514F43",
"Q  c #5C5646",
"!  c #454A52",
"~  c #514750",
"^  c #5B5855",
"/  c #4C4C48",
"(  c #654C48",
")  c #695746",
"_  c #785449",
"`  c #5A6459",
"'  c #796843",
"]  c #6F685A",
"[  c #736B50",
"{  c #4F546B",
"}  c #5F6862",
"|  c #5C7464",
" . c #5F7A69",
".. c #64776A",
"X. c #707169",
"o. c #8E733E",
"O. c #8B4C5A",
"+. c #887355",
"@. c #8D7750",
"#. c #B37D5B",
"$. c #905F63",
"%. c #895A64",
"&. c #91746C",
"*. c #917B63",
"=. c #996C73",
"-. c #88726E",
";. c #AF726F",
":. c #5E836E",
">. c #62816F",
",. c #72887B",
"<. c #898458",
"1. c #95854A",
"2. c #B58C4A",
"3. c #A2885B",
"4. c #BD9454",
"5. c #B9904E",
"6. c #8E8077",
"7. c #938169",
"8. c #A48B61",
"9. c #A99769",
"0. c #BE9E61",
"q. c #A1897F",
"w. c #B79B75",
"e. c #AD9571",
"r. c #BAA068",
"t. c #BAA47A",
"y. c #C49C5B",
"u. c #C99F5E",
"i. c #C49B55",
"p. c #D89D57",
"a. c #C9A15E",
"s. c #C2A55F",
"d. c #D1A15E",
"f. c #D9AB5E",
"g. c #C3B25A",
"h. c #C99C68",
"j. c #CDA463",
"k. c #CEA864",
"l. c #CDA66C",
"z. c #CFA86D",
"x. c #C6A26E",
"c. c #D2A462",
"v. c #D3AA66",
"b. c #D9A966",
"n. c #D3AB6B",
"m. c #D8AD6A",
"M. c #DBA368",
"N. c #CEB36E",
"B. c #D7B06E",
"V. c #DAB16E",
"C. c #D9B066",
"Z. c #C8AB79",
"A. c #D4AD73",
"S. c #CFB171",
"D. c #CFBC77",
"F. c #D5B175",
"G. c #DCB473",
"H. c #DFB876",
"J. c #D4B57C",
"K. c #DBB47B",
"L. c #DDBA7C",
"P. c #E7B56C",
"I. c #E1B676",
"U. c #E3BC7C",
"Y. c #E4B978",
"T. c #DDC27F",
"R. c #CCC37E",
"E. c #E4C27B",
"W. c #68778B",
"Q. c #9D7580",
"!. c #A67C8A",
"~. c #739485",
"^. c #7A92B8",
"/. c #8A938B",
"(. c #A09C91",
"). c #AC958B",
"_. c #BFA985",
"`. c #B1AA80",
"'. c #919AAB",
"]. c #9EA3B7",
"[. c #BFAEA7",
"{. c #B5B3AD",
"}. c #A8ACA7",
"|. c #C8AA82",
" X c #CCB48C",
".X c #D5B784",
"XX c #D4BC86",
"oX c #DCBC83",
"OX c #D3B78B",
"+X c #DBBD8B",
"@X c #DAB788",
"#X c #D7BB94",
"$X c #D7AD83",
"%X c #E2BD83",
"&X c #EBBE82",
"*X c #E4BF8A",
"=X c #EBBF90",
"-X c #F0A683",
";X c #CEAFA7",
":X c #DCBBB2",
">X c #B2C4B9",
",X c #DDC284",
"<X c #DCC28B",
"1X c #DDC69C",
"2X c #E2C285",
"3X c #EAC384",
"4X c #E4C38C",
"5X c #E3C98E",
"6X c #EACA8C",
"7X c #E4C491",
"8X c #E5CA93",
"9X c #EACB92",
"0X c #EBCA9C",
"qX c #E9C690",
"wX c #F0CE91",
"eX c #ECD39A",
"rX c #ECD393",
"tX c #F5D19A",
"yX c #F2CD88",
"uX c #DFC1B6",
"iX c #EBCDA4",
"pX c #F5D6A3",
"aX c #EACAB1",
"sX c #FFE9E0",
/* pixels */
"J.J.J.oXoXoXoXoX7X<X<X<X<XeXeX<X6X5X.XpXiX#XiX1X<X8X7XqX4X*X*X*XoXoXoX",
"J.J.J.oXoXoX%X+X+X<X8X5X,X,X8X7XrX9X9X4XXX8X8X<X5X8X9X7X7X*X*X4X2X2X2X",
"oXJ.oXoXoXoX4X4X+X+X7X6X,X,X8XpX<XXXpX<X<XrXT.6X5X5X7XqX4X*X*X=X4X2X2X",
"J.oXJ.J..XoXoX,X+X<X%X2X9X8X4X+X Xt._._.1XrXT.E.4X5X7X4X4X*X*X*X,X%X,X",
"J.J.F.J.J.J.oX%XOX4XoXoXtX<X8.' % * + + ' e.0X4X2X4X4X6X*X*X*X*X%X,X%X",
"F.J.Z.J.J.J.oXoX@X4XoX%X9Xw.i O * ^ G   + i |.7X2X5X4X4X2X%X*X%X4X2X4X",
"J.J.J.J.J.oXoXoX+XqX,X4X+X+., o X ! { X   o +.iX2X5X4X2X2X%X%X2X2X2X2X",
"J.J.oXoX2X+X%X<X4X4X%X8XOX) q !   X 8 X * @ B |.,X2X4X2X2X2XU.%X,XoX,X",
"K.J.K.K.K.%X%X*X%XF.U.9X X% ^ 3 .     X G } @ #X2X2X4X2X2X%X%XU.E.2XL.",
"A.A.A.K.K.K.K.I.A.2X6XoXZ.> q .   a /   $ 8 t Z.T.,X,XE.U.L.K.L.L.L.L.",
"z.A.A.A.A.K.K.K.J.%X3XF.4XZ O o @ -.-.# o o S J.T.T.2X,X%XU.U.%XL.L.L.",
"A.z.A.A.A.F.K.K.2XA.U.U.tXw.r ) /.uX;X&.] < 9.&X2X2X3X3X%XU.U.%XL.E.U.",
"A.A.A.A.K.K.U.$X4Xl.3X&X%X=X*.).:XsXaX;X).+..XP.2X3X2X&X%XU.&XU.E.U.E.",
"A.A.A.K.K.$XK.oXoXA.&XG..XaX7.m ( ).=.( a *.0XU.H.U.%XU.I.I.I.Y.H.H.H.",
"A.A.z.A.A.A.K.K.%XK.A.A.4X_.)   - ^ W # o ) t.yXH.H.U.I.G.G.G.I.H.V.G.",
"x.l.x.z.z.A.A.A.K.&XG.K..X' W 0 ~.~./...x z S D.H.H.I.I.G.G.G.G.V.V.V.",
"z.z.z.z.z.A.V.F.Z.$XY.J.' [ ,.! ....,.` ^ a s $.U.G.E.Y.Y.I.B.L.H.H.F.",
"z.A.z.z.A.A.F.F.=XI.K.OXv ..,. .` ` .. .:.I x x j.L.E.U.E.I.F.T.H.H.H.",
"z.A.n.A.A.A.F.F.M.M.x.<.5 I I U :.>...] ^ # , - o.+X%XY.U.G.Y.L.H.H.H.",
"z.z.z.z.A.A.A.F.M.&X7Xv Y k 7 /.>.~.6./.| ; c j B <XoXK.&Xm.U.I.H.H.H.",
"z.l.l.z.z.A.A.A.Y.n.r.) {.}.d _ $.=.O.O.L < (.}.B +XoXG.U.M.Y.I.G.H.B.",
"l.l.l.l.z.n.A.A.F.F.F.@.i ( u ;.>X>X{.;X-.u _ s o.oXK.G.Y.m.I.I.G.B.G.",
"z.z.l.l.z.A.A.A.Z.F.Y.z.B ) > _ !.Q.-.&.) > ' C 4.L.H.V.G.m.F.L.B.H.G.",
"z.z.z.n.n.A.A.F..XU.b.C.XXt.v v k 6 6 k 1 t w.*XU.D.E.I.V.G.S.oXG.G.G.",
"c.j.j.k.l.c.l.n.G.p.P.V.@X[ ; c 6 z k j h = >.-Xm.B.I.G.m.v.m.G.V.V.C.",
"u.j.h.u.j.j.c.l.K.G.f.M..X@.2 g : 1 M : N 2 o.x.B.V.V.V.m.m.B.B.V.v.v.",
"u.y.u.y.u.u.c.k.x.K.g.H.x.V y y > 2 B & f w V ,XB.B.V.V.G.B.m.m.V.m.n.",
"u.y.y.u.u.j.j.l.A.V.s.r.Z > & A : b t e f L p b a.m.G.G.B.B.m.v.V.m.b.",
"y.y.y.u.j.l.c.l.b.u.N.9.W K 4 H o m > 7 F F 0 s 5.j.G.I.B.m.n.v.b.c.c.",
"y.y.y.u.j.j.v.n.p.d.B.9.X.].{ 3 . ) b # R R W.-.2.j.I.G.m.v.v.v.b.c.c.",
"4.y.y.y.u.j.c.l.P.C.j.8.m /...E < 8.1.: E ^.'.1 2.j.G.m.k.v.v.k.b.b.c.",
"4.4.4.4.u.u.j.c.i.v.A.$Xp d 0 5 #.k.g.3.J K 8 n y.m.V.k.j.v.m.l.c.d.d.",
"y.y.y.y.u.j.j.k.v.v.j.a.k.k.k.k.v.k.k.v.v.a.k.v.v.v.m.b.c.d.c.c.d.c.d.",
"y.4.y.y.s.j.j.j.v.k.j.j.k.v.n.n.C.v.v.v.C.v.v.C.v.b.b.v.c.j.c.c.d.d.d.",
"a.4.4.a.s.j.j.k.k.j.j.a.k.k.n.v.B.v.v.B.C.N.C.V.b.b.b.v.c.c.c.c.c.d.d."
};
