/* XPM */
static char *result[] = {
/* columns rows colors chars-per-pixel */
"35 35 167 2 ",
"   c #EFBD1C",
".  c #ECBD33",
"X  c #ECC703",
"o  c #E5CA00",
"O  c #EDCC02",
"+  c #E5C50E",
"@  c #EDC70C",
"#  c #E7CC0B",
"$  c #EDC90C",
"%  c #F4C500",
"&  c #FEC501",
"*  c #F4CC03",
"=  c #FECC01",
"-  c #F5C50B",
";  c #FFC70C",
":  c #F4CA0C",
">  c #FDCB0B",
",  c #EED405",
"<  c #EED30D",
"1  c #F5D201",
"2  c #FCD201",
"3  c #FFD900",
"4  c #F4D10A",
"5  c #FCD20D",
"6  c #ECC714",
"7  c #E3CC15",
"8  c #ECCC11",
"9  c #EDC61B",
"0  c #EDCD1C",
"q  c #F5C115",
"w  c #FFC612",
"e  c #F3CC12",
"r  c #FECA12",
"t  c #FFC71A",
"y  c #F3CB1B",
"u  c #FDCB1B",
"i  c #E7D11C",
"p  c #EBD01F",
"a  c #F3D110",
"s  c #FED313",
"d  c #F9D11D",
"f  c #DACA2D",
"g  c #DCC332",
"h  c #E4C423",
"j  c #EBC325",
"k  c #E7CD22",
"l  c #EACB23",
"z  c #E7C12E",
"x  c #E4CC2C",
"c  c #ECCD2C",
"v  c #F3CC22",
"b  c #F1CB2C",
"n  c #EBD027",
"m  c #FAD127",
"M  c #E3C533",
"N  c #EECB31",
"B  c #E7C73E",
"V  c #ECC43E",
"C  c #E4C93E",
"Z  c #EBCD3D",
"A  c #F2CF33",
"S  c #F0CA3B",
"D  c #EFD234",
"F  c #ECD23B",
"G  c #EDD83D",
"H  c #F5D535",
"J  c #FBD336",
"K  c #FFDA37",
"L  c #F7D53C",
"P  c #F1D83D",
"I  c #E4CE45",
"U  c #EECD42",
"Y  c #E4C64A",
"T  c #E5CC4E",
"R  c #E8CB4D",
"E  c #F3CD4B",
"W  c #E6D547",
"Q  c #EAD141",
"!  c #EAD944",
"~  c #E4D24A",
"^  c #EDDE4F",
"/  c #F1D945",
"(  c #FADF46",
")  c #FBD74F",
"_  c #E8CF59",
"`  c #E5D253",
"'  c #EFD250",
"]  c #EEDA57",
"[  c #E7D75D",
"{  c #EDD25C",
"}  c #E6D85E",
"|  c #F3D453",
" . c #F5D55D",
".. c #FFD55D",
"X. c #F3DA5A",
"o. c #FFDE59",
"O. c #F0E25F",
"+. c #ECD561",
"@. c #E9D862",
"#. c #F0D562",
"$. c #F5DD63",
"%. c #F8DA60",
"&. c #F6D36D",
"*. c #F5DB6D",
"=. c #F9DD6F",
"-. c #EDD57B",
";. c #EEDB7C",
":. c #F9D574",
">. c #F4DD77",
",. c #F9D77D",
"<. c #F4DA7B",
"1. c #FCDD7E",
"2. c #F0E162",
"3. c #F5E26C",
"4. c #FFEE6A",
"5. c #F6E573",
"6. c #F8E177",
"7. c #FCEA75",
"8. c #F7E67E",
"9. c #F9E67F",
"0. c #FFED7F",
"q. c #EFDC90",
"w. c #E0DA9E",
"e. c #FEEB84",
"r. c #FCE48A",
"t. c #FFEC8D",
"y. c #FCF08E",
"u. c #FFE795",
"i. c #FEE59B",
"p. c #FFF29B",
"a. c #FFF99D",
"s. c #E5DCA5",
"d. c #FFE7A1",
"f. c #FFE3A9",
"g. c #FFEEAB",
"h. c #FEF2A5",
"j. c #FFFBA3",
"k. c #FFF3AB",
"l. c #FFFCAD",
"z. c #FFECB7",
"x. c #F5EEBC",
"c. c #FFEDBA",
"v. c #FFF0B7",
"b. c #FFFDB3",
"n. c #FFF5BB",
"m. c #FFFDBC",
"M. c #F4EDC3",
"N. c #FFEDC1",
"B. c #FFF4C3",
"V. c #FFFCC3",
"C. c #FFF5CB",
"Z. c #FFFECC",
"A. c #FFF7D2",
"S. c #FFFED5",
"D. c #FFFEDB",
"F. c #EEF0E5",
"G. c #F2F5E4",
"H. c #FFFEE3",
"J. c #FEF7EF",
"K. c #F4FFEF",
"L. c #FEFDEC",
"P. c #FDF6F6",
"I. c #F5FFF4",
"U. c #FDFDF4",
"Y. c #FEF6FD",
"T. c #F4FFFC",
"R. c #FEFEFD",
/* pixels */
"H.L.Y.R.R.T.I.L.I.R.R.R.I.I.I.I.R.R.R.R.R.R.R.R.R.R.R.I.R.R.R.T.R.R.R.",
"U.U.Y.R.R.R.U.I.I.R.R.R.R.R.I.R.R.R.R.R.R.R.R.R.R.R.R.R.P.I.R.R.R.R.R.",
"Y.Y.R.R.R.T.I.I.I.R.R.Y.R.R.Y.P.I.R.R.R.R.R.Y.U.U.R.R.R.R.R.R.R.R.R.R.",
"R.R.R.R.T.R.R.R.R.R.Y.Y.Y.Y.U.L.H.H.L.L.U.U.U.U.U.U.U.Y.Y.R.Y.Y.R.R.R.",
"T.R.R.I.R.R.R.R.P.U.U.U.J.H.Z.m.m.m.b.l.b.m.S.H.U.Y.P.U.U.U.U.U.U.R.R.",
"T.T.I.I.R.R.Y.R.L.S.A.V.v.i.>.@.` ~ ~ ~ ` @.;.q.z.A.D.H.H.L.L.U.R.U.R.",
"I.I.T.R.R.Y.Y.H.V.a.6.{ Y B c 0 8 e y v b D D G ! $.y.b.D.H.U.U.R.R.R.",
"I.I.R.R.Y.U.S.b.@.Q x k y d 5 = = = > r r r * O , 7 f [ h.S.L.R.R.U.R.",
"I.T.Y.R.J.V.e.Z 0 < < * = = = = & = = & ; > = = 1 1 , i I -.N.L.U.I.U.",
"R.T.Y.U.B.9.J a 1 1 * 2 = = = = = = & = ; = & & = 2 1 1 0 U :.f.H.U.R.",
"R.P.U.A.r.S X = = = > = = = & = = 2 = > ; ; = = 2 = = = * : u | x.J.R.",
"P.U.D.i.E y = = = > r r = = & = = = > - w w > = = = 2 3 5 : : M s.F.U.",
"J.H.b.{ 9 2 2 = r t u r = = & = * * 1 > > * ; = = 2 * * y H ) <.M.U.U.",
"U.D.9.M * = & > w u r > = = = = = 4 1 2 = * * - u v c Z  .e.l.Z.H.U.U.",
"Y.C.[ 7 3 = & > = = 1 3 2 = = ; > = 2 2 = = 5 m V &.i.C.H.J.U.U.U.U.U.",
"R.B.W o 3 2 & ; = = 1 1 1 = = > > > * > : y / X.p.B.H.Y.Y.R.R.R.R.U.U.",
"H.g.f 1 2 & u w = = 1 2 = = ; ; 2 * 9 U 5.p.V.S.H.J.U.R.Y.R.R.R.R.R.R.",
"L.k.x 1 3 & u w = 2 2 2 = = ; = % - K 4.j.V.D.H.U.U.R.U.R.R.R.R.R.R.R.",
"P.N.B O 3 = = ; = = 1 1 1 = = = = > u J o.e.l.Z.D.L.R.R.R.I.I.U.R.R.R.",
"P.C.T + 3 = & ; > > > 4 > = = = = & ; - 0 N X.5.h.B.D.H.L.U.L.U.U.R.R.",
"H.B.{ h s = & > ; > - > * 4 2 2 & = 2 2 = * $ n Z X.e.v.Z.H.U.U.U.R.U.",
"S.V.9.Q y = & = ; > - 5 = 2 = = 2 = = = * 1 1 5 @ l Z  .<.i.n.S.L.U.U.",
"H.S.j.$.l = = = = w u r = = = = & = = = 3 2 = = > > q   j A ( 7.x.U.U.",
"L.H.Z.r.Z e 2 = = > w > = = = = > r > * = = = & & & > > u e @ g w.G.U.",
"R.I.L.Z.e.c O 2 = & = = = = = > - > r > = & & & = & & w t m v R Z.L.U.",
"R.R.Y.J.m.7.H $ s 2 = & & = & ; = > > r r > = = & = = w   . ..u.S.L.U.",
"T.R.R.Y.L.Z.t.' z 9 > 2 3 3 = & = = = > > = = = = = * y E ,.c.D.L.U.U.",
"T.R.R.Y.Y.L.Z.k.,. .N 6 * 1 > s 2 2 = 5 > r > 4 * $ l X.p.Z.U.Y.R.U.R.",
"T.R.R.R.R.R.L.H.D.c.r.#.F c k 8 * O O o # 7 n F ' *.u.n.D.U.R.Y.R.R.R.",
"R.R.R.R.I.I.I.R.R.U.D.n.a.e.3.] / P G ! ^ O.5.r.k.V.D.J.Y.R.T.R.R.R.R.",
"Y.R.R.U.I.T.T.T.R.R.L.H.D.S.D.D.C.C.C.Z.S.D.H.H.J.U.U.U.U.R.T.T.R.R.R.",
"Y.R.U.I.L.I.T.T.T.R.R.U.R.R.R.R.Y.R.R.Y.R.R.R.R.Y.Y.R.R.R.I.U.R.R.R.R.",
"R.R.R.R.R.R.R.R.R.R.R.R.R.R.R.R.R.R.R.R.R.R.R.R.R.R.R.R.R.R.R.R.R.R.R.",
"R.R.R.R.R.R.R.R.R.R.R.R.R.R.R.R.R.R.R.R.R.R.R.R.R.R.R.R.R.R.R.R.R.R.R.",
"R.R.R.R.R.R.R.R.R.R.R.R.R.R.R.R.R.R.R.R.R.R.R.R.R.R.R.R.R.R.R.R.R.R.R."
};
