/* XPM */
static char *result[] = {
/* columns rows colors chars-per-pixel */
"35 35 40 1 ",
"  c #BD9454",
". c #C09757",
"X c #C49C5B",
"o c #C89F5F",
"O c #C8A15E",
"+ c #D0A05E",
"@ c #CDA463",
"# c #CFA866",
"$ c #CDA66C",
"% c #CFA86D",
"& c #D2A462",
"* c #D3AA66",
"= c #D9A967",
"- c #D4AC6B",
"; c #D8AE6C",
": c #D7B06F",
"> c #DAB16E",
", c #D4AD73",
"< c #D7B076",
"1 c #DBB474",
"2 c #DFB877",
"3 c #D5B47B",
"4 c #DCB57A",
"5 c #DDB97D",
"6 c #E0B777",
"7 c #E3B778",
"8 c #E1BB7C",
"9 c #DDBC82",
"0 c #DDBE88",
"q c #E1BE82",
"w c #E3BF8A",
"e c #DFC183",
"r c #DFC38C",
"t c #E3C185",
"y c #E8C283",
"u c #E4C38B",
"i c #E5C691",
"p c #E9C591",
"a c #E4C993",
"s c #EBC995",
/* pixels */
"33999999rrrrraiaaaaaaaaaiiipuuwweee",
"33399900rrrrraaaaaaaaaaa0ipipwwwrte",
"9939990r000waaaaaaaaaaaiiiiipwwptta",
"9333390000riaaiiiiiiuiiiriuiuwwweee",
"3333339r90wwwswwuiiiuiiituiuwwqweet",
",3,33399www0wwwwuuuuuuuutuuuwqqyeet",
"33333999wwwwwswswuwyuuwytauuyqwqeee",
",95900r9wwwwwsswuuyuuuyueeuytqqqeee",
"333399qwqqwwwwqqy8tty58teeyyt8e8ee8",
",3,<,9<qq<9qwwqqte5tteeteeeeee55282",
"%%,,,9,99<q9wwwqt55ee55eeeeeq888282",
",,%,,,<<9q<9qwwqe55tt59teyyyqq8qe8e",
",,,9,9,99<99wwwqe55tt58ttyyy888qy88",
"3,%99,9999,9qqwwe55tttty88888777222",
"%%,%$9,9<9999q9qe55et5et22777177>>>",
"$$$$$%,,9=%9,99,5355e55e2277>1>>>>>",
"%%%%,-,,4444979722588qyy228y7622222",
"%%,%,,<<<<<4<44425528888888y7622222",
",%%,,,<1<<<4444q4422255868y82222222",
"%%%%-,,<,<<<47842552288868882222222",
"%%$%%,,,<<<<458q22258585222221112>2",
"#$$%$%,,<14745q8558588522222>>112>>",
"%%$$%,,<4<<445588222222222221>11>2>",
"%%%%-,,<<<<423232254244522221>12>2>",
"@&@@$$--:11:11:111111442112>>;:>>>*",
"@ooo@@$&::::::::,-,---::>>1>>-->>>*",
"XoXoo@+&#%--::::;;---1>>*:>1>;-->**",
"XXoo@@@@###--:::>>1;;>1>*:>>>;-*>>=",
"oXXo@@$-###-#:::---**>:>*;;>;-**=&+",
".XXoo@$-#-#%--::-&&*+****-;;;***=&&",
"..XXo@&$###--#:#******-=#-;-#*@*==*",
"   .Xo@&-%###--***&&**=-*---#*#*=++",
"X.XXOO&O*#+#->->-***>*>>****&&&++++",
"X.XXO@#####O#--****>>**>**>*&++*&++",
"XX.XO@@@#OO##--*>***>*>>*=***++*+++"
};
