/* XPM */
static char *result[] = {
/* columns rows colors chars-per-pixel */
"35 35 58 1 ",
"  c #36302E",
". c #3B3631",
"X c #3E3A35",
"o c #413C37",
"O c #433E39",
"+ c #4B463E",
"@ c #4D4741",
"# c #4E4A42",
"$ c #534C45",
"% c #544E48",
"& c #565149",
"* c #5A554D",
"= c #5E584F",
"- c #5E5751",
"; c #5E5951",
": c #60594F",
"> c #635C54",
", c #655F58",
"< c #656156",
"1 c #6A6357",
"2 c #666259",
"3 c #6B655C",
"4 c #6E685E",
"5 c #706A5E",
"6 c #6E6760",
"7 c #6F6A61",
"8 c #736D63",
"9 c #766F68",
"0 c #767065",
"q c #797267",
"w c #777269",
"e c #7B756A",
"r c #7E786D",
"t c #7F7770",
"y c #7F7970",
"u c #817B6F",
"i c #837D72",
"p c #85806F",
"a c #878175",
"s c #898376",
"d c #878079",
"f c #8B857A",
"g c #8E897D",
"h c #908A7F",
"j c #8F8981",
"k c #938D82",
"l c #958F88",
"z c #969185",
"x c #989287",
"c c #979288",
"v c #9A948A",
"b c #9E988D",
"n c #9F9890",
"m c #A0998E",
"M c #A29C93",
"N c #A7A297",
"B c #A6A198",
"V c #A9A499",
/* pixels */
">u9686,%uu69u6ivhgd>0jgzgdawqasdf4+",
"3fiiu96>uu6649xmkhfexzkzkgfurrsfhp*",
"6jdiu8u*>83,68ifuue0sueeq0qq054000:",
"tlfiuu9-1u96uuifui02psuqe0qq54430q;",
"unnnfid6>u66661600>;afr0q88555515q:",
"-jjtuif6,iiuiijljcc0qfr58800051004&",
"6t69u66-ujjkjjkhjjz97fu0qq5q000q03&",
"6diuuiu-uiiilijlkkk94sarrrq8qqqq08&",
"-u6613,%6iiijklvbnv04auuprqqrqeqeq*",
"%uu6u5666uiiiklljjj6>rw75550055123&",
"6ndduiiijijiu>uuwer7<;40855qrrqq0;@",
",i6uu5u3uuuuuuiijjghviphghhhzMNVBc;",
",i6u6uuuuuuu33560wrig02urrpshbbbVV4",
"6iuuu65u6uuuu:15wyuaa2<upryphhhhbz>",
"6uuu6uuuuu8u5>310ruaf7;epwrpghhzge&",
"@,-,:11636:>*:3u0uisf4*ypwwrsgsghr*",
"+99378erwq893:88euifh5%qsspsgzzzvi*",
"2826340reieii>40erahh1+*<80qwqrew1#",
";422328ete9q8885qrazz><0<&=<we4ye8:",
"&744388eq8qq3quurisbb>egr1sbbzpfgg8",
"&8747wewe8883qfigvcjk38uq4hhpyruui8",
"*w70890e9987,ekgkvVMq*q000pspyepusr",
"&eew0qeeq008,8ji84ee%#3>1=4fpreuusq",
"&rww0w808242,>,>3>19w*@>2+3ar0wusg0",
"X&=;;;>2,899ii,@qzzmMi9qe*8aqeruss5",
" &dddfffgjjjjlt3fhiikg880$4aqquass1",
"Owsiayiiueeuiit3fxfizg,60=*urrpssg8",
"X2iiyryyuttifi9,uzfijg6,4<2rriupss5",
".>fiaaiiuu9idie,ezhglg668*ihrrrrps5",
"O,ifaafdiuifgld,8ieqi9:68;ekarrrus5",
"O:igdfgfsfkkkkk,,ieqfi,68:8guueeis1",
"X-ifggdfjkkvvh8>3ueugj838-8hpueqid1",
"X-tklvvllMMMM3-66eqihe%6u,8fiuuuii8",
"o-:9tuiufMnni,it6iiieu:>9%8fuuuiii8",
"oOooO@,%%-$@$*,@@,6,>3>%:%:5:*->:,:"
};
