/* XPM */
static char *result[] = {
/* columns rows colors chars-per-pixel */
"35 35 64 1 ",
"  c #010100",
". c #090701",
"X c #0C0B01",
"o c #100F08",
"O c #151405",
"+ c #15140B",
"@ c #18170B",
"# c #1B1A0E",
"$ c #191710",
"% c #1D1B13",
"& c #201F14",
"* c #222116",
"= c #24231B",
"- c #28271D",
"; c #2A281E",
": c #2C2B23",
"> c #2F2E28",
", c #302F26",
"< c #302E28",
"1 c #343227",
"2 c #34332B",
"3 c #38372D",
"4 c #39382E",
"5 c #383730",
"6 c #3D3B32",
"7 c #403F35",
"8 c #424037",
"9 c #45443A",
"0 c #48473D",
"q c #4B493E",
"w c #4D4B42",
"e c #504E44",
"r c #535146",
"t c #555449",
"y c #58574C",
"u c #5B594E",
"i c #5E5C52",
"p c #615F54",
"a c #646256",
"s c #65645A",
"d c #69675B",
"f c #6B695D",
"g c #6E6C61",
"h c #706E62",
"j c #747266",
"k c #767469",
"l c #78766A",
"z c #7C7A6D",
"x c #7F7D71",
"c c #807E72",
"v c #848275",
"b c #888677",
"n c #878578",
"m c #898779",
"M c #8C8A7D",
"N c #908E7F",
"B c #8F8D80",
"V c #918F81",
"C c #949284",
"Z c #979588",
"A c #999789",
"S c #9C9A8D",
"D c #A09D91",
"F c #A5A295",
/* pixels */
"dnvxMmuX%txAx+plznnbxvSl+4jmmCCCv92",
"9vBmv8>fg5 6w:uznczvvmxe%uMMmMCCZZ6",
"1hml:yMCBBxtXXwlmvvmbfi::abbmCVMBDj",
"=aj:fMCmxBBCne+0lZvvpq1808zmnVMzxBm",
",q2jMbbbmBklBBw+8ji2+=4q8.8lnmndgxk",
"2.uvlvvnmmvxzBjg *:8uklzjr=:ylfaw:*",
"v0yvjvMnxmBmxmMt6zbVMCmNCvs3*9y2+il",
"Zd;hzNnvnmvmcBk.jNMVMmNmmBSxu9q1kBv",
"c3:$rvnCmMvnnv*yvMmbmmmvczVAf0stBMn",
"*sCh@:ujkzbMn96cvvCNNbvvmMBl::3:wyr",
"dMzZx 6&X=4yt=jMvzMCnnmNMmv02fVy9r:",
"mMkzn,ylxxju+6jMnvzNnCMZVcp%fMVBuXs",
"zMmzv6rMBMCDs%ambzvvMZzCCz1qMCckB5r",
"kMzzM0wBckxvm>wkzvnvmmkmva:jCClhVk2",
"vVVlBi6vvnCxBs:ydzvbvzzgk80lxzMcvx1",
"anvji- 6ujxkg6 %0ujjafa81# ikcAcg:$",
"=e0+*wsa=.;=#yjp*.2081#1iBj6,taw1ff",
"d =fVBmAZq4fvCZNNg: =wkvCZZSnq qvmB",
"u+fMMxznS9ucNNMMZSm:9fmMmmvNFvq9mmc",
"o2knzvvMxOsfmNbzbnZi:dZSmnCbCvu2gf8",
"d%lMvnnZt6gkCCMvmvCf&ammvzCmBCa+%=p",
"v>iCCMZl avMZCMMNMCz=tjzlvnvMMd%ynN",
"Ci2jzkf=@hMmbmMmnNAS88ddknMMmv60kMM",
"Mi 14380*slnmnmnzvvCu;dlnMZCMu=jxll",
"a>idcnzz:rkxczvcnxxCsXaCZmZCz+ymzgk",
":wlnmvnMw:lvvvvvmnZnt qknvMmq7fvjfe",
"uapvvzbBg avvvmMMvs1=22<ryui*ryrq20",
"znvmnBmMz 70erahf8=ruzf:182 o$26 9c",
"CmCnMMcCs.3>&    6fsgxni8i36pkzMs%j",
"MnMvBvCx+acxxnld=izlvvBzw wfnVMnn9e",
"cBnMvvv=8kzxMBCn#jmzMVvma:wvBznMvs1",
"rrrisfw9rBvkMMC99MzzMBxvv26zmMCMxh.",
"9iiw7 9f=zncMCsXvSCNCVzczt%wplMlp<:",
"cnzzcvg6%ccvVg dnmmvVvCVfeo::@:o 9f",
"lzvczCBw7vmBB@ezzznlcvAMt&ehlcli34p"
};
